<svg width="15" height="18" viewBox="0 0 15 18" fill="none" xmlns="http://www.w3.org/2000/svg">
<path d="M14.1912 6.19729C14.1133 6.24605 12.2589 7.27522 12.2589 9.55712C12.3463 12.1595 14.5991 13.0721 14.6377 13.0721C14.5991 13.1209 14.2976 14.3154 13.4046 15.5675C12.6959 16.646 11.9093 17.7335 10.7149 17.7335C9.57866 17.7335 9.17079 17.0146 7.85979 17.0146C6.45189 17.0146 6.05352 17.7335 4.97559 17.7335C3.78112 17.7335 2.93626 16.5878 2.18892 15.5193C1.21802 14.1209 0.39279 11.9264 0.363657 9.81932C0.344023 8.70275 0.55809 7.60519 1.10149 6.67292C1.86846 5.37142 3.23772 4.48792 4.73302 4.45879C5.87872 4.42015 6.89839 5.24539 7.59759 5.24539C8.26766 5.24539 9.52039 4.45879 10.9378 4.45879C11.5496 4.45942 13.1811 4.64372 14.1912 6.19729ZM7.50069 4.23585C7.29676 3.21619 7.85979 2.19652 8.38419 1.54609C9.05426 0.759486 10.1126 0.225586 11.0252 0.225586C11.0835 1.24525 10.7142 2.24529 10.0543 2.97362C9.46212 3.76022 8.44246 4.35239 7.50069 4.23585Z" fill="#161A1D"/>
</svg>
