<svg width="800" height="800" viewBox="0 0 800 800" fill="none" xmlns="http://www.w3.org/2000/svg">
<path d="M682.048 211.563C671.84 203.125 658.711 199.062 645.522 200.261C632.332 201.459 620.151 207.82 611.631 217.96L400 471.881L188.367 217.964C179.871 207.785 167.68 201.397 154.475 200.207C141.269 199.016 128.132 203.12 117.953 211.616C107.774 220.112 101.386 232.303 100.196 245.508C99.0054 258.713 103.109 271.851 111.605 282.03L361.619 582.043C366.309 587.668 372.178 592.192 378.811 595.298C385.443 598.403 392.677 600.012 400 600.012C407.323 600.012 414.557 598.403 421.189 595.298C427.822 592.192 433.691 587.668 438.381 582.043L688.395 282.026C696.888 271.836 700.989 258.693 699.799 245.481C698.609 232.27 692.225 220.071 682.048 211.563Z" fill="white"/>
</svg>
