<svg width="600" height="600" viewBox="0 0 600 600" fill="none" xmlns="http://www.w3.org/2000/svg">
<g clip-path="url(#clip0_178_238)">
<path fill-rule="evenodd" clip-rule="evenodd" d="M399.01 588.547C333.887 603.82 266.113 603.82 200.992 588.547C106.947 566.487 33.5167 493.053 11.4567 399.01C-3.81892 333.887 -3.81892 266.113 11.4567 200.992C33.5167 106.947 106.947 33.5167 200.992 11.4567C266.113 -3.81892 333.887 -3.81892 399.01 11.4567C493.053 33.5164 566.487 106.947 588.547 200.992C603.82 266.113 603.82 333.887 588.547 399.01C566.487 493.053 493.053 566.487 399.01 588.547ZM393.917 346.053C401.727 338.24 401.727 325.577 393.917 317.767C386.107 309.957 373.443 309.957 365.633 317.767L320 363.4V188.316C320 177.271 311.047 168.316 300 168.316C288.953 168.316 280 177.271 280 188.316V363.4L234.367 317.767C226.558 309.957 213.894 309.957 206.084 317.767C198.273 325.577 198.273 338.24 206.084 346.053L285.857 425.827C289.61 429.577 294.697 431.683 300 431.683C305.303 431.683 310.39 429.577 314.143 425.827L393.917 346.053Z" fill="#26497E"/>
</g>
<defs>
<clipPath id="clip0_178_238">
<rect width="600" height="600" fill="white"/>
</clipPath>
</defs>
</svg>
