<svg width="13" height="13" viewBox="0 0 13 13" fill="none" xmlns="http://www.w3.org/2000/svg">
<path d="M3.698 4.88858C3.42644 4.88858 3.19362 4.79189 2.99952 4.59852C2.80542 4.40514 2.70837 4.17267 2.70837 3.90112C2.70837 3.62957 2.80506 3.39674 2.99844 3.20265C3.19182 3.00855 3.42429 2.9115 3.69583 2.9115C3.96739 2.9115 4.20021 3.00819 4.39431 3.20156C4.58841 3.39495 4.68546 3.62741 4.68546 3.89896C4.68546 4.17051 4.58877 4.40334 4.3954 4.59744C4.20201 4.79153 3.96955 4.88858 3.698 4.88858ZM2.51642 11.9167C2.3555 11.9167 2.21185 11.8648 2.08546 11.761C1.95907 11.6572 1.89587 11.5285 1.89587 11.375C1.67244 11.375 1.48116 11.2955 1.32205 11.1364C1.16293 10.9773 1.08337 10.786 1.08337 10.5625V7.04171H2.70837V6.66533C2.70837 6.3475 2.82122 6.07574 3.04692 5.85004C3.27261 5.62435 3.54515 5.5115 3.86455 5.5115C4.03265 5.5115 4.19344 5.5431 4.34692 5.60629C4.50039 5.66949 4.6358 5.76428 4.75317 5.89067L5.45733 6.68962C5.52053 6.76185 5.58598 6.8273 5.65369 6.88598C5.7214 6.94466 5.79136 6.99657 5.86358 7.04171H9.75004V2.51879C9.75004 2.3478 9.69362 2.20123 9.58077 2.07908C9.46792 1.95694 9.32574 1.89587 9.15421 1.89587C9.065 1.89587 8.9795 1.9049 8.89772 1.92296C8.81593 1.94101 8.74344 1.98164 8.68025 2.04483L7.97608 2.749C8.02122 2.90247 8.02799 3.0582 7.9964 3.21619C7.9648 3.37417 7.90837 3.52539 7.82712 3.66983L6.44587 2.35629C6.59425 2.25763 6.75321 2.19459 6.92277 2.1672C7.09234 2.13979 7.25837 2.15768 7.42087 2.22087L8.12504 1.53025C8.26046 1.39483 8.41636 1.2865 8.59276 1.20525C8.76915 1.124 8.9563 1.08337 9.15421 1.08337C9.54953 1.08337 9.88308 1.2233 10.1549 1.50317C10.4267 1.78303 10.5625 2.12157 10.5625 2.51879V7.04171H11.9167V10.5625C11.9167 10.786 11.8372 10.9773 11.678 11.1364C11.5189 11.2955 11.3276 11.375 11.1042 11.375C11.1042 11.5285 11.041 11.6572 10.9146 11.761C10.7882 11.8648 10.6393 11.9167 10.4677 11.9167H2.51642ZM1.89587 10.5625H11.1042V7.85421H1.89587V10.5625Z" fill="#9B9B9B"/>
</svg>
