<svg width="12" height="10" viewBox="0 0 12 10" fill="none" xmlns="http://www.w3.org/2000/svg">
<g clip-path="url(#clip0_95_11849)">
<path d="M0 9.73692V5.34978C0 5.06304 0.05 4.7935 0.15 4.54117C0.25 4.28884 0.4 4.08239 0.6 3.92181V1.92609C0.6 1.40996 0.7525 0.976978 1.0575 0.627153C1.3625 0.277329 1.74 0.102417 2.19 0.102417H4.89C5.11 0.102417 5.315 0.159765 5.505 0.274462C5.695 0.389158 5.86 0.543998 6 0.738982C6.14 0.543998 6.3025 0.389158 6.4875 0.274462C6.6725 0.159765 6.875 0.102417 7.095 0.102417H9.795C10.245 0.102417 10.625 0.277329 10.935 0.627153C11.245 0.976978 11.4 1.40996 11.4 1.92609V3.92181C11.6 4.08239 11.75 4.28884 11.85 4.54117C11.95 4.7935 12 5.06304 12 5.34978V9.73692H11.1V8.36056H0.9V9.73692H0ZM6.45 3.62933H10.5V1.92609C10.5 1.6967 10.4325 1.50745 10.2975 1.35834C10.1625 1.20924 9.995 1.13469 9.795 1.13469H7.05C6.88 1.13469 6.7375 1.21497 6.6225 1.37555C6.5075 1.53612 6.45 1.71964 6.45 1.92609V3.62933ZM1.5 3.62933H5.55V1.92609C5.55 1.71964 5.4925 1.53612 5.3775 1.37555C5.2625 1.21497 5.12 1.13469 4.95 1.13469H2.19C2 1.13469 1.8375 1.21211 1.7025 1.36695C1.5675 1.52179 1.5 1.70817 1.5 1.92609V3.62933ZM0.9 7.3283H11.1V5.34978C11.1 5.1548 11.0425 4.99135 10.9275 4.85945C10.8125 4.72755 10.67 4.6616 10.5 4.6616H1.5C1.33 4.6616 1.1875 4.72755 1.0725 4.85945C0.9575 4.99135 0.9 5.1548 0.9 5.34978V7.3283Z" fill="#9B9B9B"/>
</g>
<defs>
<clipPath id="clip0_95_11849">
<rect width="12" height="9.6345" fill="white" transform="translate(0 0.102417)"/>
</clipPath>
</defs>
</svg>
