<svg width="6" height="7" viewBox="0 0 6 7" fill="none" xmlns="http://www.w3.org/2000/svg">
<g clip-path="url(#clip0_137_3972)">
<path d="M0.5 7C0.366667 7 0.25 6.9475 0.15 6.8425C0.05 6.7375 0 6.615 0 6.475V1.05C0 0.91 0.05 0.7875 0.15 0.6825C0.25 0.5775 0.366667 0.525 0.5 0.525H1.04167V0H1.58333V0.525H4.41667V0H4.95833V0.525H5.5C5.63333 0.525 5.75 0.5775 5.85 0.6825C5.95 0.7875 6 0.91 6 1.05V6.475C6 6.615 5.95 6.7375 5.85 6.8425C5.75 6.9475 5.63333 7 5.5 7H0.5ZM0.5 6.475H5.5V2.7125H0.5V6.475ZM0.5 2.1875H5.5V1.05H0.5V2.1875Z" fill="#9B9B9B"/>
</g>
<defs>
<clipPath id="clip0_137_3972">
<rect width="6" height="7" fill="white"/>
</clipPath>
</defs>
</svg>
