<svg width="7" height="7" viewBox="0 0 7 7" fill="none" xmlns="http://www.w3.org/2000/svg">
<g clip-path="url(#clip0_137_3968)">
<path d="M0 7V6.41667H0.777778V0.583333C0.777778 0.427778 0.836111 0.291667 0.952778 0.175C1.06944 0.0583333 1.20556 0 1.36111 0H5.63889C5.79444 0 5.93056 0.0583333 6.04722 0.175C6.16389 0.291667 6.22222 0.427778 6.22222 0.583333V6.41667H7V7H0ZM5.63889 6.41667V0.583333H1.36111V6.41667H5.63889ZM4.34583 3.80139C4.43949 3.80139 4.518 3.76971 4.58135 3.70635C4.64471 3.643 4.67639 3.56449 4.67639 3.47083C4.67639 3.37718 4.64471 3.29867 4.58135 3.23531C4.518 3.17196 4.43949 3.14028 4.34583 3.14028C4.25218 3.14028 4.17367 3.17196 4.11031 3.23531C4.04696 3.29867 4.01528 3.37718 4.01528 3.47083C4.01528 3.56449 4.04696 3.643 4.11031 3.70635C4.17367 3.76971 4.25218 3.80139 4.34583 3.80139Z" fill="#9B9B9B"/>
</g>
<defs>
<clipPath id="clip0_137_3968">
<rect width="7" height="7" fill="white"/>
</clipPath>
</defs>
</svg>
