<svg width="11" height="11" viewBox="0 0 11 11" fill="none" xmlns="http://www.w3.org/2000/svg">
<g clip-path="url(#clip0_95_11832)">
<path d="M1.70833 10.375V4.80937C1.41042 4.80937 1.15538 4.7033 0.943229 4.49115C0.731076 4.27899 0.625 4.02396 0.625 3.72604V0.936458C0.625 0.855208 0.656597 0.782986 0.719792 0.719792C0.782986 0.656597 0.855208 0.625 0.936458 0.625C1.01771 0.625 1.09219 0.656597 1.1599 0.719792C1.2276 0.782986 1.26146 0.855208 1.26146 0.936458V2.85938H1.80313V0.936458C1.80313 0.855208 1.83472 0.782986 1.89792 0.719792C1.96111 0.656597 2.03333 0.625 2.11458 0.625C2.19583 0.625 2.26806 0.656597 2.33125 0.719792C2.39444 0.782986 2.42604 0.855208 2.42604 0.936458V2.85938H2.96771V0.936458C2.96771 0.855208 3.00156 0.782986 3.06927 0.719792C3.13698 0.656597 3.21146 0.625 3.29271 0.625C3.37396 0.625 3.44618 0.656597 3.50938 0.719792C3.57257 0.782986 3.60417 0.855208 3.60417 0.936458V3.72604C3.60417 4.02396 3.49809 4.27899 3.28594 4.49115C3.07378 4.7033 2.81875 4.80937 2.52083 4.80937V10.375H1.70833ZM5.5 10.375V4.78229C5.12986 4.57465 4.85 4.29479 4.66042 3.94271C4.47083 3.59063 4.37604 3.18438 4.37604 2.72396C4.37604 2.18229 4.51372 1.69705 4.78906 1.26823C5.06441 0.83941 5.44132 0.625 5.91979 0.625C6.39826 0.625 6.77517 0.83941 7.05052 1.26823C7.32587 1.69705 7.46354 2.18229 7.46354 2.72396C7.46354 3.18438 7.36424 3.59063 7.16563 3.94271C6.96701 4.29479 6.68264 4.57465 6.3125 4.78229V10.375H5.5ZM8.39792 10.375V0.625C8.92153 0.670139 9.38194 0.875521 9.77917 1.24115C10.1764 1.60677 10.375 2.06042 10.375 2.60208V5.90625H9.21042V10.375H8.39792Z" fill="#9B9B9B"/>
</g>
<defs>
<clipPath id="clip0_95_11832">
<rect width="11" height="11" fill="white"/>
</clipPath>
</defs>
</svg>
