<svg width="17" height="19" viewBox="0 0 17 19" fill="none" xmlns="http://www.w3.org/2000/svg">
<path d="M1.70752 0.76001L9.9369 8.93001L12.1931 6.67376L2.21815 0.914385C2.0519 0.8179 1.87377 0.764463 1.70752 0.76001ZM1.01877 1.14001C0.944556 1.27212 0.900024 1.42798 0.900024 1.60313V17.48C0.900024 17.6077 0.926743 17.722 0.971274 17.8244L9.39065 9.46438L1.01877 1.14001ZM12.8819 7.06563L10.4713 9.46438L12.8819 11.8513L15.8269 10.165C16.2455 9.92306 16.3049 9.61579 16.3019 9.45251C16.2974 9.18235 16.1267 8.93001 15.8388 8.77563C15.5879 8.64056 13.725 7.55548 12.8819 7.06563ZM9.9369 9.99876L1.63627 18.2281C1.77432 18.2207 1.92424 18.191 2.06377 18.1094C2.38885 17.9209 8.96315 14.1194 8.96315 14.1194L12.205 12.255L9.9369 9.99876Z" fill="#161A1D"/>
</svg>
