<svg width="20" height="20" viewBox="0 0 20 20" fill="none" xmlns="http://www.w3.org/2000/svg">
<g clip-path="url(#clip0_95_18681)">
<path d="M19.8055 8.0415H19V8H10V12H15.6515C14.827 14.3285 12.6115 16 10 16C6.6865 16 4 13.3135 4 10C4 6.6865 6.6865 4 10 4C11.5295 4 12.921 4.577 13.9805 5.5195L16.809 2.691C15.023 1.0265 12.634 0 10 0C4.4775 0 0 4.4775 0 10C0 15.5225 4.4775 20 10 20C15.5225 20 20 15.5225 20 10C20 9.3295 19.931 8.675 19.8055 8.0415Z" fill="#FFC107"/>
<path d="M1 5.51438L4.35769 8C5.26622 5.72947 7.46653 4.12637 10.0414 4.12637C11.6045 4.12637 13.0266 4.7216 14.1094 5.69387L17 2.77602C15.1748 1.05893 12.7333 0 10.0414 0C6.11599 0 2.7118 2.23701 1 5.51438Z" fill="#FF3D00"/>
<path d="M10.1267 20C12.7747 20 15.1808 19.0082 17 17.3952L13.8271 14.7673C12.7978 15.5304 11.5184 15.9865 10.1267 15.9865C7.46018 15.9865 5.19607 14.3223 4.34311 12L1 14.521C2.69667 17.7705 6.14231 20 10.1267 20Z" fill="#4CAF50"/>
<path d="M19.8055 8.04408H19V8H10V12.2489H15.6515C15.2555 13.437 14.536 14.4616 13.608 15.2078L13.6095 15.2067L16.7045 17.9887C16.4855 18.2001 20 15.4356 20 10.1245C20 9.41224 19.931 8.71701 19.8055 8.04408Z" fill="#1976D2"/>
</g>
<defs>
<clipPath id="clip0_95_18681">
<rect width="20" height="20" fill="white"/>
</clipPath>
</defs>
</svg>
