<svg width="179" height="219" viewBox="0 0 179 219" fill="none" xmlns="http://www.w3.org/2000/svg">
<rect width="178.082" height="218.15" rx="13" fill="#EEEEEE"/>
<g clip-path="url(#clip0_284_2)">
<path d="M87.9875 116.5H90.2375V110.275H96.5V108.025H90.2375V101.5H87.9875V108.025H81.5V110.275H87.9875V116.5ZM89.01 124C86.9416 124 84.9979 123.606 83.1787 122.819C81.3596 122.031 79.7688 120.956 78.4062 119.594C77.0438 118.231 75.9688 116.639 75.1813 114.818C74.3938 112.997 74 111.052 74 108.981C74 106.911 74.3938 104.965 75.1813 103.144C75.9688 101.323 77.0438 99.7375 78.4062 98.3875C79.7688 97.0375 81.3605 95.9688 83.1815 95.1813C85.0025 94.3938 86.9483 94 89.0188 94C91.0892 94 93.035 94.3938 94.856 95.1813C96.677 95.9688 98.2625 97.0375 99.6125 98.3875C100.963 99.7375 102.031 101.325 102.819 103.15C103.606 104.975 104 106.922 104 108.99C104 111.058 103.606 113.002 102.819 114.821C102.031 116.64 100.963 118.229 99.6125 119.587C98.2625 120.945 96.675 122.02 94.85 122.812C93.025 123.604 91.0783 124 89.01 124ZM89.0188 121.75C92.5563 121.75 95.5625 120.506 98.0375 118.019C100.513 115.531 101.75 112.519 101.75 108.981C101.75 105.444 100.515 102.438 98.0445 99.9625C95.5742 97.4875 92.5594 96.25 89 96.25C85.475 96.25 82.4688 97.4852 79.9813 99.9555C77.4938 102.426 76.25 105.441 76.25 109C76.25 112.525 77.4938 115.531 79.9813 118.019C82.4688 120.506 85.4813 121.75 89.0188 121.75Z" fill="#D9D9D9"/>
</g>
<defs>
<clipPath id="clip0_284_2">
<rect width="30" height="30" fill="white" transform="translate(74 94)"/>
</clipPath>
</defs>
</svg>
