<svg width="29" height="25" viewBox="0 0 29 25" fill="none" xmlns="http://www.w3.org/2000/svg">
<g clip-path="url(#clip0_105_23602)">
<path d="M6 3H23L26.5 6L26 11L23 19L14.5 23.5L6 19L3 12V6L6 3Z" fill="#DD2200"/>
<path d="M15.3006 22.9769C14.8897 23.1202 14.2131 23.1202 13.8022 22.9769C10.2981 21.7947 2.46808 16.8631 2.46808 8.50432C2.46808 4.81453 5.47683 1.82927 9.18641 1.82927C11.3856 1.82927 13.331 2.88008 14.5514 4.50406C15.7718 2.88008 17.7293 1.82927 19.9164 1.82927C23.626 1.82927 26.6347 4.81453 26.6347 8.50432C26.6347 16.8631 18.8047 21.7947 15.3006 22.9769Z" stroke="#DD2200" stroke-width="3" stroke-linecap="round" stroke-linejoin="round"/>
</g>
<defs>
<clipPath id="clip0_105_23602">
<rect width="29" height="25" fill="white"/>
</clipPath>
</defs>
</svg>
