<svg width="4220" height="3156" viewBox="0 0 4220 3156" fill="none" xmlns="http://www.w3.org/2000/svg">
<g clip-path="url(#clip0_221_313)">
<rect width="4220" height="3156" fill="#F5FBFF"/>
<circle cx="644" cy="2578" r="1000" fill="#2196F3"/>
<circle cx="544" cy="2678" r="900" fill="#42A5F5"/>
<circle cx="444" cy="2778" r="800" fill="#64B5F6"/>
<circle cx="344" cy="2878" r="700" fill="#90CAF9"/>
<circle cx="244" cy="2978" r="600" fill="#BBDEFB"/>
<circle cx="144" cy="3078" r="500" fill="#E3F2FD"/>
<circle cx="2819.28" cy="507.282" r="1000" transform="rotate(156 2819.28 507.282)" fill="#2196F3"/>
<circle cx="2869.96" cy="375.254" r="900" transform="rotate(156 2869.96 375.254)" fill="#42A5F5"/>
<circle cx="2920.64" cy="243.225" r="800" transform="rotate(156 2920.64 243.225)" fill="#64B5F6"/>
<circle cx="2971.32" cy="111.197" r="700" transform="rotate(156 2971.32 111.197)" fill="#90CAF9"/>
<circle cx="3022.01" cy="-20.8308" r="600" transform="rotate(156 3022.01 -20.8308)" fill="#BBDEFB"/>
<circle cx="3072.69" cy="-152.859" r="500" transform="rotate(156 3072.69 -152.859)" fill="#E3F2FD"/>
</g>
<defs>
<clipPath id="clip0_221_313">
<rect width="4220" height="3156" fill="white"/>
</clipPath>
</defs>
</svg>
