<svg width="16" height="16" viewBox="0 0 16 16" fill="none" xmlns="http://www.w3.org/2000/svg">
<g clip-path="url(#clip0_95_12144)">
<path d="M7.80488 8.46829H8.11597H8.44878H11.7073V7.29756H8.44878H8.11597H7.80488H7.51917H7.27805H3.90244V8.46829H7.27805H7.80488ZM7.81007 15.6098C6.73385 15.6098 5.72247 15.4049 4.77592 14.9951C3.82937 14.5854 3.00163 14.026 2.29268 13.3171C1.58374 12.6081 1.02439 11.7799 0.614634 10.8324C0.204878 9.88486 0 8.87244 0 7.79512C0 6.7178 0.204878 5.70539 0.614634 4.75787C1.02439 3.81035 1.58374 2.98537 2.29268 2.28293C3.00163 1.58049 3.82986 1.02439 4.77739 0.614634C5.7249 0.204878 6.73731 0 7.81463 0C8.89195 0 9.90437 0.204878 10.8519 0.614634C11.7994 1.02439 12.6244 1.58049 13.3268 2.28293C14.0293 2.98537 14.5854 3.81138 14.9951 4.76098C15.4049 5.71057 15.6098 6.72347 15.6098 7.79969C15.6098 8.8759 15.4049 9.88729 14.9951 10.8338C14.5854 11.7804 14.0293 12.6069 13.3268 13.3135C12.6244 14.02 11.7984 14.5794 10.8488 14.9915C9.89919 15.4037 8.88628 15.6098 7.81007 15.6098ZM7.81463 14.439C9.65528 14.439 11.2195 13.7919 12.5073 12.4976C13.7951 11.2033 14.439 9.63577 14.439 7.79512C14.439 5.95447 13.7963 4.39024 12.511 3.10244C11.2256 1.81463 9.65691 1.17073 7.80488 1.17073C5.97073 1.17073 4.4065 1.81341 3.1122 3.09877C1.81789 4.38414 1.17073 5.95285 1.17073 7.80488C1.17073 9.63902 1.81789 11.2033 3.1122 12.4976C4.4065 13.7919 5.97398 14.439 7.81463 14.439Z" fill="#9D3E3E"/>
</g>
<defs>
<clipPath id="clip0_95_12144">
<rect width="16" height="16" fill="white"/>
</clipPath>
</defs>
</svg>
