<svg width="13" height="10" viewBox="0 0 13 10" fill="none" xmlns="http://www.w3.org/2000/svg">
<g clip-path="url(#clip0_95_11823)">
<path d="M5.07 7.60938L9.295 4.96875L5.07 2.32812V7.60938ZM0.975 10C0.715 10 0.4875 9.90625 0.2925 9.71875C0.0975 9.53125 0 9.3125 0 9.0625V0.9375C0 0.6875 0.0975 0.46875 0.2925 0.28125C0.4875 0.09375 0.715 0 0.975 0H12.025C12.285 0 12.5125 0.09375 12.7075 0.28125C12.9025 0.46875 13 0.6875 13 0.9375V9.0625C13 9.3125 12.9025 9.53125 12.7075 9.71875C12.5125 9.90625 12.285 10 12.025 10H0.975ZM0.975 9.0625H12.025V0.9375H0.975V9.0625Z" fill="#9B9B9B"/>
</g>
<defs>
<clipPath id="clip0_95_11823">
<rect width="13" height="10" fill="white"/>
</clipPath>
</defs>
</svg>
