<svg width="10" height="10" viewBox="0 0 10 10" fill="none" xmlns="http://www.w3.org/2000/svg">
<g clip-path="url(#clip0_95_11843)">
<path d="M3.51929 0.677083V0H6.26929V0.677083H3.51929ZM4.55054 5.72135H5.23804V3.12587H4.55054V5.72135ZM4.89429 9.46788C4.32901 9.46788 3.7962 9.36068 3.29585 9.14627C2.7955 8.93186 2.35818 8.64034 1.98387 8.2717C1.60956 7.90307 1.31356 7.47237 1.09585 6.9796C0.878141 6.48683 0.769287 5.96209 0.769287 5.40538C0.769287 4.84867 0.878141 4.32393 1.09585 3.83116C1.31356 3.3384 1.60956 2.9077 1.98387 2.53906C2.35818 2.17043 2.7955 1.87891 3.29585 1.6645C3.7962 1.45009 4.32901 1.34288 4.89429 1.34288C5.40609 1.34288 5.88734 1.42752 6.33804 1.59679C6.78873 1.76606 7.18977 2.00116 7.54116 2.30208L8.12554 1.72656L8.60679 2.20052L8.02241 2.77604C8.29741 3.07697 8.53231 3.44184 8.7271 3.87066C8.92189 4.29948 9.01929 4.81105 9.01929 5.40538C9.01929 5.96209 8.91043 6.48683 8.69272 6.9796C8.47502 7.47237 8.17901 7.90307 7.8047 8.2717C7.4304 8.64034 6.99307 8.93186 6.49272 9.14627C5.99238 9.36068 5.45957 9.46788 4.89429 9.46788ZM4.89429 8.7908C5.84915 8.7908 6.66078 8.46166 7.32918 7.80339C7.99759 7.14511 8.33179 6.34578 8.33179 5.40538C8.33179 4.46499 7.99759 3.66565 7.32918 3.00738C6.66078 2.3491 5.84915 2.01997 4.89429 2.01997C3.93943 2.01997 3.12779 2.3491 2.45939 3.00738C1.79099 3.66565 1.45679 4.46499 1.45679 5.40538C1.45679 6.34578 1.79099 7.14511 2.45939 7.80339C3.12779 8.46166 3.93943 8.7908 4.89429 8.7908Z" fill="#9B9B9B"/>
</g>
<defs>
<clipPath id="clip0_95_11843">
<rect width="10" height="10" fill="white"/>
</clipPath>
</defs>
</svg>
