<svg width="86" height="88" viewBox="0 0 86 88" fill="none" xmlns="http://www.w3.org/2000/svg">
<mask id="mask0_95_8124" style="mask-type:alpha" maskUnits="userSpaceOnUse" x="0" y="2" width="86" height="86">
<circle cx="43" cy="45" r="43" fill="#C37878"/>
</mask>
<g mask="url(#mask0_95_8124)">
<path d="M86 88H0C0 73.1176 6.7295 61 21.5 61H64.5C79.3135 61 86 73.0528 86 87.9352V88Z" fill="#FC663D"/>
<path d="M51 40V63.25C51 64.2677 50.7931 65.2755 50.391 66.2158C49.989 67.1561 49.3997 68.0104 48.6569 68.7301C47.914 69.4497 47.0321 70.0206 46.0615 70.4101C45.0909 70.7995 44.0506 71 43 71C41.9494 71 40.9091 70.7995 39.9385 70.4101C38.9679 70.0206 38.086 69.4497 37.3431 68.7301C36.6003 68.0104 36.011 67.1561 35.609 66.2158C35.2069 65.2755 35 64.2677 35 63.25V40H51Z" fill="#F7CC94"/>
<path d="M59 31.8084C58.8465 34.8631 58.0636 37.8534 56.7001 40.5928C55.3367 43.3321 53.422 45.7617 51.0756 47.7298V53.0943C48.8053 54.9723 45.949 56 43 56C40.051 56 37.1947 54.9723 34.9244 53.0943V47.7298C32.578 45.7617 30.6633 43.3321 29.2999 40.5928C27.9364 37.8534 27.1535 34.8631 27 31.8084C27.8853 21.23 34.7517 13 43 13C51.2483 13 58.1147 21.23 59 31.8084Z" fill="#F4B392"/>
<path d="M58.9996 29.5229C59.0047 30.4148 58.9547 31.3062 58.8499 32.1918C58.6978 35.2434 57.9223 38.2308 56.5716 40.9674C55.221 43.704 53.3243 46.1311 50.9998 48.0972C48.7509 49.9733 45.9213 51 43 51C40.0787 51 37.2491 49.9733 35.0002 48.0972C32.6757 46.1311 30.779 43.704 29.4284 40.9674C28.0777 38.2308 27.3022 35.2434 27.1501 32.1918C27.0453 31.3062 26.9953 30.4148 27.0004 29.5229C27.0004 17.6423 34.1446 8 43 8C51.8554 8 58.9996 17.6423 58.9996 29.5229Z" fill="#F7CC94"/>
<path d="M64 29.511C63.994 30.9688 63.3984 32.3649 62.3434 33.3937C61.2884 34.4224 59.86 35 58.371 35C55.2863 35 58.371 32.5311 58.371 29.511C58.371 26.491 55.2863 24 58.371 24C59.1102 24 59.8422 24.1425 60.5251 24.4195C61.2081 24.6965 61.8286 25.1024 62.3513 25.6141C62.874 26.1259 63.2886 26.7334 63.5715 27.402C63.8544 28.0707 64 28.7873 64 29.511Z" fill="#F7CC94"/>
<path d="M22 29.511C22.006 30.9688 22.6016 32.3649 23.6566 33.3937C24.7116 34.4224 26.14 35 27.629 35C30.7137 35 27.629 32.5311 27.629 29.511C27.629 26.491 30.7137 24 27.629 24C26.8898 24 26.1578 24.1425 25.4749 24.4195C24.7919 24.6965 24.1714 25.1024 23.6487 25.6141C23.126 26.1259 22.7114 26.7334 22.4285 27.402C22.1456 28.0707 22 28.7873 22 29.511Z" fill="#F7CC94"/>
<path d="M36 25C36.5523 25 37 24.7761 37 24.5C37 24.2239 36.5523 24 36 24C35.4477 24 35 24.2239 35 24.5C35 24.7761 35.4477 25 36 25Z" fill="#3F1400"/>
<path d="M50 25C50.5523 25 51 24.7761 51 24.5C51 24.2239 50.5523 24 50 24C49.4477 24 49 24.2239 49 24.5C49 24.7761 49.4477 25 50 25Z" fill="#3F1400"/>
<path d="M32 20C32 20 35.8968 18.4375 40 19.2188" stroke="#3F1400" stroke-width="1.33" stroke-linecap="round" stroke-linejoin="round"/>
<path d="M52 20C52 20 49.0774 18.4375 46 19.2188" stroke="#3F1400" stroke-width="1.33" stroke-linecap="round" stroke-linejoin="round"/>
<path d="M42 25C42 25 37.3125 35 39.6563 35H42" stroke="#3F1400" stroke-width="1.33" stroke-linecap="round" stroke-linejoin="round"/>
<path d="M42 40C42 40 48.75 40 51 39" stroke="#3F1400" stroke-width="1.33" stroke-linecap="round" stroke-linejoin="round"/>
<path d="M28.2751 24.9352C28.2751 24.9352 30.4022 14.422 34.5076 14.422C38.6129 14.422 38.6342 16.5808 44.8454 16.5808C51.0567 16.5808 59.3525 25 59.3525 25C59.3525 25 66.5422 13.3858 57.2254 3.97358C53.0775 -0.21444 42.7183 -2.33003 36.5071 3.97358C30.2958 10.2772 30.2958 8.29112 28.2112 8.29112C26.1266 8.29112 22 8.29112 22 12.6087C22 16.9262 28.2751 24.9352 28.2751 24.9352Z" fill="#3F1400"/>
</g>
</svg>
