<svg width="20" height="20" viewBox="0 0 20 20" fill="none" xmlns="http://www.w3.org/2000/svg">
<g clip-path="url(#clip0_95_18678)">
<path d="M9.99989 19.9796C15.5115 19.9796 19.9795 15.5116 19.9795 10C19.9795 4.4884 15.5115 0.0203705 9.99989 0.0203705C4.4883 0.0203705 0.0202637 4.4884 0.0202637 10C0.0202637 15.5116 4.4883 19.9796 9.99989 19.9796Z" fill="#FC3F1D"/>
<path d="M13.6111 16.2648H11.4204V5.42963H10.4445C8.65557 5.42963 7.71853 6.32408 7.71853 7.65926C7.71853 9.17408 8.36483 9.87593 9.70187 10.7704L10.8037 11.513L7.63705 16.263H5.28149L8.13149 12.0222C6.49261 10.8519 5.57038 9.70926 5.57038 7.78149C5.57038 5.37223 7.25001 3.73334 10.4296 3.73334H13.5963V16.2611H13.6111V16.2648Z" fill="white"/>
</g>
<defs>
<clipPath id="clip0_95_18678">
<rect width="20" height="20" fill="white"/>
</clipPath>
</defs>
</svg>
