<svg width="15" height="18" viewBox="0 0 15 18" fill="none" xmlns="http://www.w3.org/2000/svg">
<g clip-path="url(#clip0_3_39)">
<path d="M14.1912 6.19716C14.1133 6.24593 12.2589 7.2751 12.2589 9.557C12.3463 12.1594 14.5991 13.072 14.6377 13.072C14.5991 13.1208 14.2976 14.3152 13.4046 15.5673C12.6959 16.6459 11.9093 17.7333 10.7149 17.7333C9.57866 17.7333 9.17079 17.0145 7.85979 17.0145C6.45189 17.0145 6.05352 17.7333 4.97559 17.7333C3.78112 17.7333 2.93626 16.5876 2.18892 15.5192C1.21802 14.1208 0.39279 11.9263 0.363657 9.8192C0.344023 8.70263 0.55809 7.60506 1.10149 6.6728C1.86846 5.3713 3.23772 4.4878 4.73302 4.45866C5.87872 4.42003 6.89839 5.24526 7.59759 5.24526C8.26766 5.24526 9.52039 4.45866 10.9378 4.45866C11.5496 4.4593 13.1811 4.6436 14.1912 6.19716ZM7.50069 4.23573C7.29676 3.21606 7.85979 2.1964 8.38419 1.54596C9.05426 0.759364 10.1126 0.225464 11.0252 0.225464C11.0835 1.24513 10.7142 2.24516 10.0543 2.9735C9.46212 3.7601 8.44246 4.35226 7.50069 4.23573Z" fill="#26497E"/>
</g>
<defs>
<clipPath id="clip0_3_39">
<rect width="15" height="18" fill="white"/>
</clipPath>
</defs>
</svg>
