<svg width="20" height="23" viewBox="0 0 20 23" fill="none" xmlns="http://www.w3.org/2000/svg">
<g clip-path="url(#clip0_95_18686)">
<path d="M14.7887 0C13.4896 0.07705 11.9981 0.815745 11.1114 1.75645C10.3102 2.61205 9.67815 3.88276 9.93618 5.11211C11.348 5.15006 12.7651 4.39223 13.6136 3.43428C14.4057 2.53843 15.0062 1.288 14.7887 0ZM14.8658 5.10986C12.8274 5.10986 11.9752 6.38789 10.5634 6.38789C9.11098 6.38789 7.78327 5.19072 6.02553 5.19072C3.63454 5.19187 0 7.45238 0 12.778C0 17.623 4.30158 23 6.72975 23C8.20468 23.0149 8.56225 22.0535 10.5634 22.0432C12.5668 22.0282 12.999 23.0126 14.4762 23C16.1393 22.9874 17.4382 21.1221 18.3869 19.6443C19.0674 18.5863 19.3472 18.0462 19.8746 16.8502C15.9613 15.8382 15.1827 9.39742 19.8746 8.06572C18.9889 6.52357 16.4038 5.10986 14.8658 5.10986Z" fill="black"/>
</g>
<defs>
<clipPath id="clip0_95_18686">
<rect width="20" height="23" fill="white"/>
</clipPath>
</defs>
</svg>
