<svg width="600" height="636" viewBox="0 0 600 636" fill="none" xmlns="http://www.w3.org/2000/svg">
<g clip-path="url(#clip0_178_242)">
<path fill-rule="evenodd" clip-rule="evenodd" d="M200.992 11.4567C266.113 -3.81892 333.887 -3.81892 399.01 11.4567C493.053 33.5164 566.483 106.947 588.543 200.992C603.82 266.113 603.82 333.887 588.543 399.01C566.483 493.053 493.053 566.483 399.01 588.543C333.887 603.82 266.113 603.82 200.992 588.543C106.947 566.483 33.5167 493.053 11.4567 399.01C-3.81892 333.887 -3.81892 266.113 11.4567 200.991C33.5167 106.947 106.947 33.5164 200.992 11.4567ZM233.763 254.55C226.287 247.073 214.164 247.073 206.687 254.55C199.21 262.03 199.21 274.15 206.687 281.627L286.46 361.4C290.05 364.993 294.92 367.01 300 367.01C305.077 367.01 309.947 364.993 313.537 361.4L393.31 281.627C400.787 274.15 400.787 262.03 393.31 254.55C385.833 247.073 373.713 247.073 366.233 254.55L300 320.787L233.763 254.55Z" fill="#26497E"/>
</g>
<defs>
<clipPath id="clip0_178_242">
<rect width="600" height="636" fill="white"/>
</clipPath>
</defs>
</svg>
