<svg width="16" height="8" viewBox="0 0 16 8" fill="none" xmlns="http://www.w3.org/2000/svg">
<g clip-path="url(#clip0_197_300)">
<path d="M11.9176 1C10.5451 1 9.38357 1.91506 9.00764 3.16664C8.75957 2.87445 8.39064 2.6883 7.97824 2.6883C7.56584 2.6883 7.19669 2.87445 6.94884 3.16664C6.5729 1.91506 5.41138 1 4.03892 1C2.36324 1 1 2.36324 1 4.03892C1 5.71459 2.36324 7.07783 4.03892 7.07783C5.71459 7.07783 7.07783 5.71459 7.07783 4.03892C7.07783 3.54233 7.48168 3.13851 7.97824 3.13851C8.47461 3.13851 8.87865 3.54235 8.87865 4.03892C8.87865 5.71459 10.2419 7.07783 11.9176 7.07783C13.5932 7.07783 14.9565 5.71459 14.9565 4.03892C14.9565 2.36324 13.5932 1 11.9176 1ZM4.03892 6.6276C2.61154 6.6276 1.4502 5.46629 1.4502 4.03889C1.4502 2.61148 2.61151 1.45018 4.03892 1.45018C5.46632 1.45018 6.62763 2.61148 6.62763 4.03889C6.62763 5.46629 5.46629 6.6276 4.03892 6.6276ZM11.9176 6.6276C10.4902 6.6276 9.32885 5.46629 9.32885 4.03889C9.32885 2.61148 10.4902 1.45018 11.9176 1.45018C13.3449 1.45018 14.5063 2.61148 14.5063 4.03889C14.5063 5.46629 13.3449 6.6276 11.9176 6.6276Z" fill="#010002" stroke="#8000FF" stroke-width="0.2" stroke-linecap="round" stroke-linejoin="round"/>
<path d="M11.9176 1C10.5451 1 9.38357 1.91506 9.00764 3.16664C8.75957 2.87445 8.39064 2.6883 7.97824 2.6883C7.56584 2.6883 7.19669 2.87445 6.94884 3.16664C6.5729 1.91506 5.41138 1 4.03892 1C2.36324 1 1 2.36324 1 4.03892C1 5.71459 2.36324 7.07783 4.03892 7.07783C5.71459 7.07783 7.07783 5.71459 7.07783 4.03892C7.07783 3.54233 7.48168 3.13851 7.97824 3.13851C8.47461 3.13851 8.87865 3.54235 8.87865 4.03892C8.87865 5.71459 10.2419 7.07783 11.9176 7.07783C13.5932 7.07783 14.9565 5.71459 14.9565 4.03892C14.9565 2.36324 13.5932 1 11.9176 1ZM4.03892 6.6276C2.61154 6.6276 1.4502 5.46629 1.4502 4.03889C1.4502 2.61148 2.61151 1.45018 4.03892 1.45018C5.46632 1.45018 6.62763 2.61148 6.62763 4.03889C6.62763 5.46629 5.46629 6.6276 4.03892 6.6276ZM11.9176 6.6276C10.4902 6.6276 9.32885 5.46629 9.32885 4.03889C9.32885 2.61148 10.4902 1.45018 11.9176 1.45018C13.3449 1.45018 14.5063 2.61148 14.5063 4.03889C14.5063 5.46629 13.3449 6.6276 11.9176 6.6276Z" fill="#8000FF"/>
</g>
<defs>
<clipPath id="clip0_197_300">
<rect width="16" height="8" fill="white"/>
</clipPath>
</defs>
</svg>
