<svg width="9" height="8" viewBox="0 0 9 8" fill="none" xmlns="http://www.w3.org/2000/svg">
<path fill-rule="evenodd" clip-rule="evenodd" d="M2.31543 1.56615C1.62055 1.56615 1.06543 2.08571 1.06543 2.71726C1.06543 3.42852 1.50626 4.18746 2.18856 4.93077C2.76124 5.55465 3.45738 6.11764 4.06543 6.5718C4.67348 6.11764 5.36963 5.55465 5.94228 4.93077C6.62458 4.18746 7.06543 3.42852 7.06543 2.71726C7.06543 2.08571 6.51033 1.56615 5.81543 1.56615C5.12053 1.56615 4.56543 2.08571 4.56543 2.71726C4.56543 2.97501 4.34158 3.18394 4.06543 3.18394C3.78928 3.18394 3.56543 2.97501 3.56543 2.71726C3.56543 2.08571 3.01031 1.56615 2.31543 1.56615ZM4.06543 1.40687C3.65218 0.934088 3.02049 0.632812 2.31543 0.632812C1.07731 0.632812 0.0654297 1.56185 0.0654297 2.71726C0.0654297 3.76802 0.699165 4.74275 1.42914 5.53799C2.16949 6.34458 3.07758 7.03982 3.75828 7.53439C3.93893 7.66562 4.19193 7.66562 4.37258 7.53439C5.05328 7.03982 5.96138 6.34458 6.70173 5.53799C7.43168 4.74275 8.06543 3.76802 8.06543 2.71726C8.06543 1.56185 7.05353 0.632812 5.81543 0.632812C5.11038 0.632812 4.47868 0.934088 4.06543 1.40687Z" fill="#C37878"/>
</svg>
