<svg width="13" height="13" viewBox="0 0 13 13" fill="none" xmlns="http://www.w3.org/2000/svg">
<path d="M5.42699 1C2.98926 1 1 2.98926 1 5.42699C1 7.86472 2.98926 9.85398 5.42699 9.85398C6.42632 9.85398 7.34706 9.51601 8.08951 8.95356L10.9488 11.8123C11.0051 11.8709 11.0725 11.9176 11.147 11.9499C11.2216 11.9821 11.3019 11.9991 11.3831 12C11.4643 12.0008 11.5449 11.9854 11.6201 11.9547C11.6954 11.924 11.7637 11.8786 11.8211 11.8211C11.8786 11.7637 11.924 11.6954 11.9547 11.6201C11.9854 11.5449 12.0008 11.4643 12 11.3831C11.9991 11.3019 11.9821 11.2216 11.9499 11.147C11.9176 11.0725 11.8709 11.0051 11.8123 10.9488L8.95356 8.08951C9.51601 7.34706 9.85398 6.42632 9.85398 5.42699C9.85398 2.98926 7.86472 1 5.42699 1ZM5.42699 2.22124C7.20471 2.22124 8.63274 3.64927 8.63274 5.42699C8.63274 6.28055 8.3012 7.05142 7.76213 7.62439C7.70966 7.66237 7.66357 7.70847 7.62558 7.76094C7.05249 8.30069 6.28116 8.63274 5.42699 8.63274C3.64927 8.63274 2.22124 7.20471 2.22124 5.42699C2.22124 3.64927 3.64927 2.22124 5.42699 2.22124Z" fill="#26497E" fill-opacity="0.52"/>
</svg>
