<svg width="24" height="24" viewBox="0 0 24 24" fill="none" xmlns="http://www.w3.org/2000/svg">
<path d="M11.6162 13.3217C12.0118 13.2799 12.2983 12.9254 12.2566 12.53C12.2147 12.1345 11.8602 11.8479 11.4648 11.8897L11.6162 13.3217ZM3.31439 5.13024L4.03408 5.15128C4.03423 5.14587 4.03433 5.14046 4.03437 5.13505L3.31439 5.13024ZM4.03343 4.416L4.03341 5.13604L4.04141 5.13595L4.03343 4.416ZM8.19939 6.35418C8.53176 6.57247 8.97816 6.47998 9.19645 6.14761C9.41474 5.81524 9.32225 5.36884 8.98988 5.15056L8.19939 6.35418ZM4.03344 3.696C3.65344 3.69599 3.28886 3.84629 3.01926 4.11408L4.03437 5.13505L4.03341 5.13604L4.03344 3.696ZM3.01926 4.11408C2.74967 4.38188 2.59694 4.74545 2.59441 5.12543L4.03437 5.13505L3.01926 4.11408ZM2.5947 5.1092C2.44939 10.079 6.83951 13.8273 11.6162 13.3217L11.4648 11.8897C7.5014 12.3091 3.91582 9.19606 4.03408 5.15128L2.5947 5.1092ZM8.98988 5.15056C7.51769 4.18369 5.78945 3.67649 4.02545 3.69604L4.04141 5.13595C5.51886 5.11959 6.96636 5.54439 8.19939 6.35418L8.98988 5.15056Z" fill="black"/>
<path d="M13.9393 5.24241C13.6105 5.46605 13.5253 5.91389 13.749 6.24269C13.9726 6.57149 14.4204 6.65674 14.7492 6.4331L13.9393 5.24241ZM19.0099 4.416L19.0058 5.136H19.0089L19.0099 4.416ZM19.727 5.13024L19.007 5.13409C19.0071 5.13964 19.0072 5.14518 19.0073 5.15073L19.727 5.13024ZM17.6496 10.5667L18.1396 11.0942C18.1509 11.0838 18.1617 11.073 18.1722 11.062L17.6496 10.5667ZM11.7242 11.8975C11.3281 11.8618 10.9782 12.154 10.9425 12.55C10.9069 12.9461 11.199 13.296 11.5951 13.3316L11.7242 11.8975ZM14.7492 6.4331C16.004 5.57967 17.4884 5.12736 19.0058 5.136L19.014 3.69601C17.2049 3.68571 15.4353 4.22497 13.9393 5.24241L14.7492 6.4331ZM19.0089 5.136C19.0084 5.136 19.008 5.1358 19.0076 5.13544L20.0238 4.11516C19.7547 3.84718 19.3906 3.69651 19.0108 3.696L19.0089 5.136ZM19.0076 5.13544C19.0073 5.13509 19.007 5.1346 19.007 5.13409L20.447 5.12639C20.445 4.74665 20.2928 4.38314 20.0238 4.11516L19.0076 5.13544ZM19.0073 5.15073C19.033 6.05432 18.8802 6.9541 18.5575 7.79851L19.9027 8.31252C20.293 7.29112 20.4778 6.20273 20.4467 5.10974L19.0073 5.15073ZM18.5575 7.79851C18.2349 8.64291 17.7487 9.41532 17.1269 10.0715L18.1722 11.062C18.9243 10.2683 19.5123 9.33392 19.9027 8.31252L18.5575 7.79851ZM17.1595 10.0392C16.421 10.7253 15.5442 11.2452 14.5879 11.5639L15.0432 12.9301C16.1947 12.5462 17.2505 11.9203 18.1396 11.0942L17.1595 10.0392ZM14.5879 11.5639C13.6661 11.8712 12.6912 11.9846 11.7242 11.8975L11.5951 13.3316C12.7594 13.4365 13.9333 13.2999 15.0432 12.9301L14.5879 11.5639Z" fill="black"/>
<path d="M19.4413 14.5618C19.4478 14.1642 19.1308 13.8366 18.7332 13.8301C18.3357 13.8236 18.008 14.1407 18.0015 14.5382L19.4413 14.5618ZM5.04183 14.5383C5.03535 14.1407 4.70779 13.8237 4.3102 13.8301C3.91261 13.8366 3.59555 14.1642 3.60203 14.5617L5.04183 14.5383ZM18.0015 14.5382C17.9922 15.1115 17.4985 15.8224 16.273 16.4304C15.0904 17.0171 13.4126 17.4 11.5217 17.4V18.84C13.587 18.84 15.4929 18.425 16.9131 17.7203C18.2904 17.037 19.4185 15.9629 19.4413 14.5618L18.0015 14.5382ZM11.5217 17.4C9.63049 17.4 7.95262 17.018 6.77011 16.4317C5.54517 15.8244 5.05121 15.1136 5.04183 14.5383L3.60203 14.5617C3.62488 15.9646 4.75265 17.0387 6.13046 17.7219C7.5507 18.426 9.45655 18.84 11.5217 18.84V17.4Z" fill="black"/>
<path d="M22.32 14.5171H23.04V14.5101L22.32 14.5171ZM0.72 14.52L0 14.5133V14.52H0.72ZM2.21462 12.0438C2.43767 11.7147 2.35163 11.2669 2.02242 11.0439C1.69323 10.8209 1.24554 10.9069 1.0225 11.2361L2.21462 12.0438ZM22.0323 11.258C21.8107 10.9278 21.3634 10.8399 21.0332 11.0615C20.7031 11.2831 20.615 11.7304 20.8367 12.0606L22.0323 11.258ZM21.6 14.5171C21.6 16.1896 20.5831 17.7919 18.7572 19.0091C16.9366 20.223 14.3799 20.9971 11.52 20.9971V22.4371C14.6245 22.4371 17.4679 21.5994 19.5561 20.2073C21.6392 18.8186 23.04 16.8209 23.04 14.5171H21.6ZM11.52 20.9971C8.65996 20.9971 6.10322 20.2236 4.28255 19.0105C2.45688 17.7941 1.44 16.1924 1.44 14.52H0C0 16.8239 1.40088 18.8208 3.48409 20.2088C5.5723 21.6002 8.41556 22.4371 11.52 22.4371V20.9971ZM1.43997 14.5267C1.44826 13.6409 1.71773 12.7772 2.21462 12.0438L1.0225 11.2361C0.366639 12.2041 0.0109373 13.3441 0 14.5133L1.43997 14.5267ZM20.8367 12.0606C21.326 12.7896 21.5915 13.6459 21.6 14.5241L23.04 14.5101C23.0286 13.3507 22.6782 12.2203 22.0323 11.258L20.8367 12.0606Z" fill="black"/>
<path d="M11.5407 12.6057L11.0879 13.1655C11.352 13.3791 11.7294 13.3791 11.9935 13.1655L11.5407 12.6057ZM8.66067 6.84571L7.94094 6.82611C7.94053 6.84145 7.94059 6.8568 7.94116 6.87214L8.66067 6.84571ZM11.0472 1.52155L11.5408 2.04579C11.5443 2.04248 11.5478 2.03913 11.5512 2.03574L11.0472 1.52155ZM12.0351 1.52155L11.5311 2.03574C11.5344 2.03906 11.5373 2.04253 11.5408 2.04579L12.0351 1.52155ZM14.4207 6.84571L15.1402 6.87214C15.1408 6.85678 15.1408 6.8414 15.1404 6.82604L14.4207 6.84571ZM11.5512 2.03574C11.5486 2.03838 11.5449 2.03986 11.5412 2.03986V0.599854C11.168 0.599854 10.8097 0.746163 10.5432 1.00737L11.5512 2.03574ZM11.5412 2.03986C11.5374 2.03986 11.5338 2.03838 11.5311 2.03574L12.5391 1.00737C12.2726 0.746163 11.9143 0.599854 11.5412 0.599854V2.03986ZM9.38041 6.86532C9.42973 5.05504 10.2222 3.28713 11.5408 2.04579L10.5537 0.997317C8.956 2.50144 8.00071 4.6326 7.94094 6.82611L9.38041 6.86532ZM11.9935 12.046C10.4214 10.7741 9.4544 8.84006 9.38019 6.81929L7.94116 6.87214C8.03065 9.30883 9.19216 11.6319 11.0879 13.1655L11.9935 12.046ZM13.7012 6.81929C13.627 8.84006 12.66 10.7741 11.0879 12.046L11.9935 13.1655C13.8891 11.6319 15.0507 9.30883 15.1402 6.87214L13.7012 6.81929ZM11.5408 2.04579C12.8588 3.28759 13.6514 5.0552 13.701 6.86539L15.1404 6.82604C15.0805 4.63286 14.1257 2.50203 12.5288 0.997509L11.5408 2.04579Z" fill="black"/>
</svg>
